<?xml version="1.0" encoding="utf-8"?>
<!-- Generator: Adobe Illustrator 16.0.0, SVG Export Plug-In . SVG Version: 6.00 Build 0)  -->
<!DOCTYPE svg PUBLIC "-//W3C//DTD SVG 1.1//EN" "http://www.w3.org/Graphics/SVG/1.1/DTD/svg11.dtd">
<svg version="1.1"
	 id="Layer_1" xmlns:cc="http://creativecommons.org/ns#" xmlns:dc="http://purl.org/dc/elements/1.1/" xmlns:rdf="http://www.w3.org/1999/02/22-rdf-syntax-ns#"
	 xmlns="http://www.w3.org/2000/svg" xmlns:xlink="http://www.w3.org/1999/xlink" x="0px" y="0px" width="18px" height="21.041px"
	 viewBox="3 0.959 18 21.041" enable-background="new 3 0.959 18 21.041" xml:space="preserve">
<path fill="#BDC3C7" d="M5,4C3.896,4,3,4.9,3,6v14c0,1.1,0.896,2,2,2h6h2h6c1.105,0,2-0.9,2-2V6c0-1.1-0.895-2-2-2h-6h-2H5z"/>
<path fill="#ECF0F1" d="M5,3C3.896,3,3,3.896,3,5v14c0,1.105,0.896,2,2,2h6h2h6c1.105,0,2-0.895,2-2V5c0-1.104-0.895-2-2-2h-6h-2H5z
	"/>
<path fill="#E74C3C" d="M5,3C3.896,3,3,3.896,3,5v3v1h18V8V5c0-1.104-0.895-2-2-2h-6h-2H5z"/>
<path fill="#C0392B" d="M7.5,5.5C7.5,6.329,6.829,7,6,7S4.5,6.329,4.5,5.5C4.5,4.672,5.171,4,6,4S7.5,4.672,7.5,5.5z"/>
<path fill="#BDC3C7" d="M6,1C5.448,1,5,1.448,5,2v3c0,0.552,0.448,1,1,1s1-0.448,1-1V2C7,1.448,6.552,1,6,1z"/>
<path fill="#C0392B" d="M19.5,5.5C19.5,6.329,18.828,7,18,7s-1.5-0.671-1.5-1.5C16.5,4.672,17.172,4,18,4S19.5,4.672,19.5,5.5z"/>
<g>
	<path fill="#BDC3C7" d="M18,1c-0.552,0-1,0.4-1,1v3c0,0.5,0.448,1,1,1s1-0.5,1-1V2C19,1.4,18.552,1,18,1z"/>
	<path fill="#BDC3C7" d="M5,11v2h2v-2H5z M8,11v2h2v-2H8z M11,11v2h2v-2H11z M14,11v2h2v-2H14z M17,11v2h2v-2H17z"/>
	<path fill="#BDC3C7" d="M5,14v2h2v-2H5z M8,14v2h2v-2H8z M11,14v2h2v-2H11z M14,14v2h2v-2H14z M17,14v2h2v-2H17z"/>
	<path fill="#BDC3C7" d="M5,17v2h2v-2H5z M8,17v2h2v-2H8z M11,17v2h2v-2H11z M14,17v2h2v-2H14z M17,17v2h2v-2H17z"/>
</g>
</svg>
